<svg width="1426" height="741" viewBox="0 0 1426 741" fill="none" xmlns="http://www.w3.org/2000/svg">
<path d="M563 79C563 74.5817 566.582 71 571 71H724.33C729.95 71 733.819 76.6426 731.792 81.8846L616.978 378.885C615.786 381.967 612.821 384 609.516 384H571C566.582 384 563 380.418 563 376V79Z" fill="#E64D3D"/>
<path d="M864 305C864 309.418 860.418 313 856 313H702.67C697.05 313 693.181 307.357 695.208 302.115L810.022 5.11538C811.214 2.03255 814.179 0 817.484 0H856C860.418 0 864 3.58172 864 8V305Z" fill="#0D276A"/>
<path d="M27 704H65.4V629.9H99.9C141.9 629.9 171.9 602.9 171.9 563.9C171.9 524.9 141.9 497.6 99.9 497.6H27V704ZM65.4 528.8H94.5C116.7 528.8 132.3 542.9 132.3 563.9C132.3 584.6 116.7 598.7 94.5 598.7H65.4V528.8ZM209.813 704H248.213V603.8C258.113 591.2 271.613 584.3 284.213 584.3C288.713 584.3 293.513 584.9 297.713 586.1V551.9C293.513 550.7 289.313 550.4 285.113 550.4C272.213 550.4 259.013 557 248.213 569V554H209.813V704ZM317.527 629C317.527 674.9 349.627 707.6 394.927 707.6C440.227 707.6 472.027 674.9 472.027 629C472.027 582.8 440.227 550.4 394.927 550.4C349.627 550.4 317.527 582.8 317.527 629ZM356.827 629C356.827 601.4 372.427 582.5 394.927 582.5C417.127 582.5 432.727 601.4 432.727 629C432.727 656.6 417.127 675.5 394.927 675.5C372.427 675.5 356.827 656.6 356.827 629Z" fill="#E64D3D"/>
<path d="M515.801 704H554.201V629.9H588.701C630.701 629.9 660.701 602.9 660.701 563.9C660.701 524.9 630.701 497.6 588.701 497.6H515.801V704ZM554.201 528.8H583.301C605.501 528.8 621.101 542.9 621.101 563.9C621.101 584.6 605.501 598.7 583.301 598.7H554.201V528.8ZM698.613 704H737.013V599.9C746.913 589.4 758.013 584 769.113 584C784.713 584 795.513 595.4 795.513 611.3V704H834.213V604.4C834.213 572.6 812.013 550.4 780.813 550.4C765.513 550.4 750.513 556.1 737.013 566.9V488.3H698.613V704ZM870.488 629C870.488 674.9 902.588 707.6 947.887 707.6C993.188 707.6 1024.99 674.9 1024.99 629C1024.99 582.8 993.188 550.4 947.887 550.4C902.588 550.4 870.488 582.8 870.488 629ZM909.788 629C909.788 601.4 925.388 582.5 947.887 582.5C970.088 582.5 985.688 601.4 985.688 629C985.688 656.6 970.088 675.5 947.887 675.5C925.388 675.5 909.788 656.6 909.788 629ZM1062.76 704H1101.16V599.9C1111.06 589.4 1122.16 584 1133.26 584C1148.86 584 1159.66 595.4 1159.66 611.3V704H1198.36V604.4C1198.36 572.6 1176.16 550.4 1144.96 550.4C1129.66 550.4 1114.66 556.1 1101.16 566.9V554H1062.76V704ZM1234.64 627.8C1234.64 674.6 1266.44 707.6 1311.74 707.6C1328.54 707.6 1345.64 703.7 1362.74 695.9V663.8C1347.14 672.8 1331.84 677.9 1318.04 677.9C1292.84 677.9 1274.84 662.3 1272.44 639.5H1374.14C1374.74 634.4 1374.74 629.6 1374.74 625.4C1374.74 581.3 1348.04 550.4 1308.74 550.4C1265.84 550.4 1234.64 582.5 1234.64 627.8ZM1272.44 614.6C1274.24 593.9 1288.64 580.1 1307.24 580.1C1324.34 580.1 1336.64 594.2 1337.84 614.6H1272.44Z" fill="#0D276A"/>
</svg>
